# xmcd
#
# Track frame offsets: 
#        150
#        11720
#        27240
#        41775
#        56327
#        66495
#        80157
#        93352
#        104022
#        117000
#        130257
#        142705
#        156285
#        169002
#        180737
#        194900
#        209070
#        223030
#        235945
#        250472
#        261127
#        275065
#        285857
#        299610
#        312030
#
# Disc length: 4330 seconds
#
# Revision: 3
# Processed by: cddbd v1.5.2PL0 Copyright (c) Steve Scherf et al.
# Submitted via: ExactAudioCopy v1.1
#
DISCID=8710e819
DTITLE=Various Artist - The Cocktail Combos (Capitol) - Disc 2
DYEAR=1996
DGENRE=Blues
TTITLE0=Johnny Moore's Three Blazers - Blazers Boogie (mono)
TTITLE1=Johnny Moore's Three Blazers featuring Charles Brown - Baby Do
TTITLE1=n't You Cry (mono)
TTITLE2=Johnny Moore's Three Blazers featuring Charles Brown - Driftin
TTITLE2=g Blues (mono)
TTITLE3=Charles Brown - Homesick Blues (mono)
TTITLE4=Charles Brown - How High The Moon (mono)
TTITLE5=Charles Brown - Get Yourself Another Fool (mono)
TTITLE6=Charles Brown - In The Evening When The Sun Goes Down (mono)
TTITLE7=Charles Brown - Trouble Blues (mono)
TTITLE8=Charles Brown - I Don't Care Who Knows (mono)
TTITLE9=Charles Brown - When Your Lover Has Gone (mono)
TTITLE10=Charles Brown - Tormented (mono)
TTITLE11=Charles Brown - Alley Batting (mono)
TTITLE12=Charles Brown - Take Me (mono)
TTITLE13=Charles Brown - Let's Have A Ball (mono)
TTITLE14=Charles Brown - Did You Ever Love A Woman (mono)
TTITLE15=Charles Brown - Again (mono)
TTITLE16=Charles Brown - Gee! (mono)
TTITLE17=Charles Brown - I've Made Up My Mind (mono)
TTITLE18=Charles Brown - That Old Feeling (mono)
TTITLE19=Charles Brown - Without The One You Love (mono)
TTITLE20=Charles Brown - Black Night (mono)
TTITLE21=Charles Brown - Once There Lived A Fool (mono)
TTITLE22=Charles Brown - Hard Times (mono)
TTITLE23=Charles Brown - Evening Shadows (mono)
TTITLE24=Charles Brown - Rollin' Like A Pebble In The Sand (mono)
EXTD=
EXTT0=
EXTT1=
EXTT2=
EXTT3=
EXTT4=
EXTT5=
EXTT6=
EXTT7=
EXTT8=
EXTT9=
EXTT10=
EXTT11=
EXTT12=
EXTT13=
EXTT14=
EXTT15=
EXTT16=
EXTT17=
EXTT18=
EXTT19=
EXTT20=
EXTT21=
EXTT22=
EXTT23=
EXTT24=
PLAYORDER=
